<svg enable-background="new 0 0 512 512" height="512px" id="Layer_1" version="1.1" viewBox="0 0 512 512" width="512px" xml:space="preserve" xmlns="http://www.w3.org/2000/svg" xmlns:xlink="http://www.w3.org/1999/xlink"><g><polygon clip-rule="evenodd" fill="#3194D2" fill-rule="evenodd" points="0,0 435.207,0 512,76.793 512,512 76.793,512 0,435.211     "/><polygon clip-rule="evenodd" fill="#56B5E6" fill-rule="evenodd" points="435.207,0 512,76.793 435.207,76.793  "/><polygon clip-rule="evenodd" fill="#1B6C9D" fill-rule="evenodd" points="435.207,76.793 512,153.584 512,76.793  "/><polygon clip-rule="evenodd" fill="#56B5E6" fill-rule="evenodd" points="76.793,512 0,435.211 76.793,435.211  "/><polygon clip-rule="evenodd" fill="#1B6C9D" fill-rule="evenodd" points="153.588,512 76.793,435.211 76.793,512  "/><path clip-rule="evenodd" d="M253.051,189.41c10.129,0,17.383,1.814,21.922,5.596   c4.684,3.779,8.465,9.07,11.789,15.871c2.574,4.686,4.84,8.016,6.953,10.125c2.266,2.121,5.293,3.025,9.523,3.025   c4.539,0,8.316-1.664,11.34-5.135c3.02-3.33,4.539-7.266,4.539-11.646c0-4.686-1.215-9.521-3.633-14.512   c-2.418-4.834-6.348-9.676-11.488-14.055c-5.293-4.539-11.941-8.166-19.957-10.887c-8.008-2.721-17.531-4.082-28.416-4.082   c-13.758,0-25.699,1.967-35.83,6.047c-10.125,4.232-17.982,10.129-23.275,17.688c-5.443,7.561-8.012,16.326-8.012,26.156   c0,10.426,2.418,19.041,7.559,25.998c5.139,6.805,11.939,12.395,20.559,16.326c8.613,4.078,19.346,7.559,32.197,10.578   c9.521,2.266,17.23,4.23,22.977,6.199c5.742,1.965,10.434,4.832,14.059,8.465c3.629,3.777,5.441,8.613,5.441,14.516   c0,7.398-3.477,13.75-10.129,18.742c-6.648,4.988-15.418,7.406-26.15,7.406c-7.711,0-14.059-1.207-18.896-3.629   c-4.684-2.574-8.463-5.742-11.186-9.52c-2.568-3.785-4.986-8.621-7.256-14.211c-1.967-4.836-4.08-8.469-6.801-10.891   c-2.572-2.414-5.898-3.625-9.676-3.625c-4.686,0-8.617,1.516-11.641,4.684c-3.023,3.184-4.533,6.809-4.533,11.191   c0,7.559,2.568,15.418,7.557,23.434c5.141,7.859,11.791,14.359,19.801,19.047c11.49,6.648,26.004,9.969,43.691,9.969   c14.664,0,27.359-2.414,38.09-7.254c10.734-4.836,18.898-11.637,24.336-20.254c5.598-8.613,8.469-18.293,8.469-29.027   c0-9.063-1.664-16.625-4.84-22.82c-3.172-6.199-7.707-11.336-13.449-15.422c-5.75-4.08-12.703-7.561-20.863-10.43   c-8.008-2.875-17.234-5.445-27.359-7.711c-8.014-2.115-13.758-3.631-17.234-4.686c-3.479-1.055-6.953-2.57-10.43-4.381   c-3.326-1.814-6.047-4.084-8.012-6.654c-1.967-2.721-2.873-5.74-2.873-9.371c0-5.746,2.873-10.58,8.617-14.816   C236.121,191.375,243.832,189.41,253.051,189.41L253.051,189.41z M410.566,323.945c0,47.469-38.395,86.016-86.012,86.016   c-14.215,0-27.66-3.48-39.461-9.523c-9.367,1.813-19.195,2.875-29.168,2.875c-40.664,0-77.398-16.633-104.002-43.234L303.688,512   H512V303.688L360.531,152.375c26.453,26.607,42.777,63.188,42.777,103.551c0,9.52-0.902,18.742-2.715,27.656   C407.09,295.684,410.566,309.434,410.566,323.945L410.566,323.945z" fill="#1B6C9D" fill-rule="evenodd"/><path clip-rule="evenodd" d="M188.506,213.602c0-9.83,2.568-18.596,8.012-26.156   c5.293-7.559,13.15-13.455,23.275-17.688c10.131-4.08,22.072-6.047,35.83-6.047c10.885,0,20.408,1.361,28.416,4.082   c8.016,2.721,14.664,6.348,19.957,10.887c5.141,4.379,9.07,9.221,11.488,14.055c2.418,4.99,3.633,9.826,3.633,14.512   c0,4.381-1.52,8.316-4.539,11.646c-3.023,3.471-6.801,5.135-11.34,5.135c-4.23,0-7.258-0.904-9.523-3.025   c-2.113-2.109-4.379-5.439-6.953-10.125c-3.324-6.801-7.105-12.092-11.789-15.871c-4.539-3.781-11.793-5.596-21.922-5.596   c-9.219,0-16.93,1.965-22.521,6.045c-5.744,4.236-8.617,9.07-8.617,14.816c0,3.631,0.906,6.65,2.873,9.371   c1.965,2.57,4.686,4.84,8.012,6.654c3.477,1.811,6.951,3.326,10.43,4.381c3.477,1.055,9.221,2.57,17.234,4.686   c10.125,2.266,19.352,4.836,27.359,7.711c8.16,2.869,15.113,6.35,20.863,10.43c5.742,4.086,10.277,9.223,13.449,15.422   c3.176,6.195,4.84,13.758,4.84,22.82c0,10.734-2.871,20.414-8.469,29.027c-5.438,8.617-13.602,15.418-24.336,20.254   c-10.73,4.84-23.426,7.254-38.09,7.254c-17.688,0-32.201-3.32-43.691-9.969c-8.01-4.688-14.66-11.188-19.801-19.047   c-4.988-8.016-7.557-15.875-7.557-23.434c0-4.383,1.51-8.008,4.533-11.191c3.023-3.168,6.955-4.684,11.641-4.684   c3.777,0,7.104,1.211,9.676,3.625c2.721,2.422,4.834,6.055,6.801,10.891c2.27,5.59,4.688,10.426,7.256,14.211   c2.723,3.777,6.502,6.945,11.186,9.52c4.838,2.422,11.186,3.629,18.896,3.629c10.732,0,19.502-2.418,26.15-7.406   c6.652-4.992,10.129-11.344,10.129-18.742c0-5.902-1.813-10.738-5.441-14.516c-3.625-3.633-8.316-6.5-14.059-8.465   c-5.746-1.969-13.455-3.934-22.977-6.199c-12.852-3.02-23.584-6.5-32.197-10.578c-8.619-3.932-15.42-9.521-20.559-16.326   C190.924,232.643,188.506,224.027,188.506,213.602L188.506,213.602z M410.566,323.945c0-14.512-3.477-28.262-9.973-40.363   c1.813-8.914,2.715-18.137,2.715-27.656c0-81.33-66.051-147.236-147.383-147.236c-9.826,0-19.652,1.055-29.027,2.871   c-11.789-6.047-25.242-9.523-39.604-9.523c-47.465,0-86.014,38.547-86.014,86.012c0,14.512,3.629,28.268,10.131,40.209   c-1.816,9.07-2.725,18.291-2.725,27.668c0,81.324,65.908,147.387,147.238,147.387c9.973,0,19.801-1.063,29.168-2.875   c11.801,6.043,25.246,9.523,39.461,9.523C372.172,409.961,410.566,371.414,410.566,323.945L410.566,323.945z" fill="#FFFFFF" fill-rule="evenodd"/></g></svg>